# xmcd
#
# Track frame offsets: 
#        150
#        17776
#        40645
#        62547
#        82912
#        99813
#        116131
#        137831
#        149845
#        169018
#        185697
#
# Disc length: 2732 seconds
#
# Revision: 0
# Processed by: cddbd v1.5.2PL0 Copyright (c) Steve Scherf et al.
# Submitted via: ExactAudioCopyFreeDBPlugin 1.0
#
DISCID=910aaa0b
DTITLE=Bernard Allison and Cedric Burnside - Express
DYEAR=2013
DGENRE=Blues
TTITLE0=Backtrack
TTITLE1=Do You Know What I Think?
TTITLE2=Why Did I Do It?
TTITLE3=Southshore Drive
TTITLE4=Fire It Up
TTITLE5=Minnissippi Blues
TTITLE6=Nutbush City Limits
TTITLE7=Stanky Issues
TTITLE8=That Thang
TTITLE9=Hidden Charms
TTITLE10=Going Down
EXTD=
EXTT0=
EXTT1=
EXTT2=
EXTT3=
EXTT4=
EXTT5=
EXTT6=
EXTT7=
EXTT8=
EXTT9=
EXTT10=
PLAYORDER=
